<svg xmlns="http://www.w3.org/2000/svg" viewBox="0 0 96 96"><defs><style>.cls-1{fill:#3e1315;}.cls-2{fill:#fff;}</style></defs><title>Asset 4ldpi</title><g id="Layer_2" data-name="Layer 2"><g id="Layer_1-2" data-name="Layer 1"><rect class="cls-1" width="96" height="96"/><path class="cls-2" d="M58.88,48.59c3.07-1.78,11,.33,13.06,4.77.26-.35-5.75-3.55-6.16-2.61l-.1,1.59c-1.71-.79-3.21-1.55-4.79-1.42a24.75,24.75,0,0,1-5.3,5.2c.12-.88-.61-1.62-1-1.19a67.23,67.23,0,0,1-7.51,4.87C50.42,57.66,56.71,51.2,58.88,48.59Z"/><path id="Stem" class="cls-2" d="M26.07,69.75c22-9.8,31.44-23.29,31.44-23.29,8.6-3.58,16.34,4.63,21.56,9.26C78,51.55,73,40.28,60.25,42,61.9,41.12,67,31.23,67,31.23c9.51-3.51,22,11.32,21.68,10.93-1.74-7.69-9.25-18.38-23.46-16.81-8.3,27.05-37.82,35.48-36.95,36C28.25,61.38,25.12,69,26.07,69.75Z"/><ellipse id="Note" class="cls-2" cx="19.39" cy="60.52" rx="10.04" ry="12.25" transform="matrix(0.31, -0.95, 0.95, 0.31, -44.16, 60.14)"/><path class="cls-2" d="M68,33.18c3-1.56,10,.53,14.75,5.58-1.23-.8-8.51-4.3-8.89-3.55l1.31,2.28c-2.8-1.72-4.37-2.44-5.53-2.11a43.08,43.08,0,0,0-5.47,4.67C64.44,39.66,66.19,36.57,68,33.18Z"/></g></g></svg>