<svg id="Layer_1" data-name="Layer 1" xmlns="http://www.w3.org/2000/svg" viewBox="0 0 32 32"><defs><style>.cls-1{fill:#3e1315;}.cls-2{fill:#fff;}</style></defs><title>32x32</title><rect class="cls-1" width="32" height="32"/><path class="cls-2" d="M19.63,16.2c1-.6,3.67.11,4.35,1.59.09-.12-1.92-1.19-2.05-.87l0,.53A3.3,3.3,0,0,0,20.3,17a8.62,8.62,0,0,1-1.77,1.74c0-.3-.2-.54-.34-.4a22.07,22.07,0,0,1-2.5,1.62A25.59,25.59,0,0,0,19.63,16.2Z"/><path id="Stem" class="cls-2" d="M8.69,23.25C16,20,19.17,15.49,19.17,15.49c2.87-1.2,5.45,1.54,7.19,3.08-.38-1.39-2-5.14-6.28-4.56.55-.3,2.25-3.6,2.25-3.6,3.17-1.17,7.32,3.77,7.22,3.64a7.11,7.11,0,0,0-7.82-5.6c-2.76,9-12.6,11.83-12.31,12C9.42,20.46,8.37,23,8.69,23.25Z"/><ellipse id="Note" class="cls-2" cx="6.46" cy="20.17" rx="3.35" ry="4.08" transform="translate(-14.72 20.05) rotate(-71.89)"/><path class="cls-2" d="M22.67,11.06c1-.52,3.32.18,4.91,1.86-.41-.27-2.83-1.43-3-1.18l.44.76c-.94-.58-1.46-.82-1.85-.71a14.16,14.16,0,0,0-1.82,1.56C21.48,13.22,22.06,12.19,22.67,11.06Z"/></svg>