<svg xmlns="http://www.w3.org/2000/svg" width="558.975" height="530.579" viewBox="0 0 558.975 530.579">
  <g id="Everything_else" data-name="Everything else" transform="translate(0.44 -98.684)">
    <path id="Path_29" data-name="Path 29" d="M-4.062,551.681S337.667,440.8,338.618,386.367s-36.249-204.626-166.284-138.11-38.3,220.767,59.477,153.234S460.625,231.135,460.625,231.135" transform="translate(4.062 19.485)" fill="none" stroke="#dc8527" stroke-miterlimit="10" stroke-width="2.854" stroke-dasharray="12"/>
    <path id="Path_30" data-name="Path 30" d="M531.478,183.405l-90.59,18.966,25.073,8.561Z" transform="translate(19.229 9.389)" fill="#fff"/>
    <path id="Path_31" data-name="Path 31" d="M470.907,231.849l-4.946-20.916,65.517-27.527Z" transform="translate(19.229 9.636)" fill="#d2d3d4"/>
    <path id="Path_32" data-name="Path 32" d="M474.617,215.251l56.861-31.845-23.855,46.826Z" transform="translate(19.229 9.616)" fill="#fff"/>
    <path id="Path_35" data-name="Path 35" d="M186.059,98.209H66.953a3.7,3.7,0,0,0-3.7,3.7v41.585a3.7,3.7,0,0,0,3.7,3.7H165.2l-3.5,11.652,15.761-11.652h8.561a3.7,3.7,0,0,0,3.7-3.7V101.909a3.7,3.7,0,0,0-3.662-3.7Z" transform="translate(4.062 0.951)" fill="none" stroke="#fff" stroke-miterlimit="10" stroke-width="0.951"/>
    <path id="Path_36" data-name="Path 36" d="M134.277,130.311H48.348c-2.045,0-3.7,2.055-3.7,4.594v35.631c0,2.54,1.655,4.594,3.7,4.594H58.973l12.365,14.153V175.13h62.939c2.045,0,3.7-2.055,3.7-4.594V134.9C137.977,132.365,136.322,130.311,134.277,130.311Z" transform="translate(4.062 7.94)" fill="#fff"/>
    <circle id="Ellipse_1" data-name="Ellipse 1" cx="4.832" cy="4.832" r="4.832" transform="translate(98.447 117.945)" fill="#fff"/>
    <circle id="Ellipse_2" data-name="Ellipse 2" cx="4.832" cy="4.832" r="4.832" transform="translate(130.99 118.745)" fill="#fff"/>
    <circle id="Ellipse_3" data-name="Ellipse 3" cx="4.832" cy="4.832" r="4.832" transform="translate(159.299 117.945)" fill="#fff"/>
    <circle id="Ellipse_4" data-name="Ellipse 4" cx="3.453" cy="3.453" r="3.453" transform="translate(71.595 149.877)" fill="#401215"/>
    <circle id="Ellipse_5" data-name="Ellipse 5" cx="3.453" cy="3.453" r="3.453" transform="translate(91.741 150.447)" fill="#401215"/>
    <circle id="Ellipse_6" data-name="Ellipse 6" cx="3.453" cy="3.453" r="3.453" transform="translate(115.129 149.877)" fill="#401215"/>
    <path id="Path_43" data-name="Path 43" d="M509.829,156.573a8.1,8.1,0,0,1-.628-6.23h0l-.828-.447-7.533,13.935a4.328,4.328,0,0,0-2.064-2.416c-1.9-1.046-4.176-.6-5.051,1s0,3.7,1.9,4.756,4.081.694,5.041-.951h0l7.01-13.012a11.928,11.928,0,0,0,1.227,4.043c1.665,3.662-1.579,4.756-1.579,4.756C509.639,162.08,511.465,159.8,509.829,156.573Z" transform="translate(23.728 0.951)" fill="#fff"/>
    <path id="Path_44" data-name="Path 44" d="M528.853,244.033h0l5.859-10.254h0l.1-.162-8.446-3.567-.694,1.237-4.5,7.876a2.854,2.854,0,0,0-1.322-1.607,2.407,2.407,0,0,0-3.32.571,2.635,2.635,0,0,0,4.5,2.578h0l5.25-9.169,7.257,3.015-4.518,7.923a2.854,2.854,0,0,0-1.322-1.617,2.188,2.188,0,1,0-2.15,3.729,2.368,2.368,0,0,0,3.32-.571h0Z" transform="translate(23.728 12.598)" fill="#fff"/>
    <path id="Path_45" data-name="Path 45" d="M450.229,181.807a2.682,2.682,0,0,0,1.56-3.329h0l-5-10.463,7.248-4.661,4.318,9.027a3.091,3.091,0,0,0-2.273.181,2.4,2.4,0,1,0,2.017,4.261,2.673,2.673,0,0,0,1.56-3.329h0l-5.583-11.661h0l-.1-.209-8.484,5.393.675,1.379,4.309,8.989a3.11,3.11,0,0,0-2.283.181,2.4,2.4,0,1,0,2.026,4.261Z" transform="translate(19.702 9.204)" fill="#fff"/>
    <path id="Path_46" data-name="Path 46" d="M494.487,246.525a7.876,7.876,0,0,1-4.081-4.49h0l-.951.124,2.169,15.219a4.186,4.186,0,0,0-3.006-.685c-2.093.285-3.6,1.9-3.358,3.681s2.131,2.854,4.223,2.606,3.586-1.807,3.358-3.672h.057l-2.026-14.182a11.33,11.33,0,0,0,3.282,2.454c3.405,1.9,1.5,4.594,1.5,4.594C497.53,250.91,497.635,248.057,494.487,246.525Z" transform="translate(23.728 13.291)" fill="#fff"/>
    <path id="Path_47" data-name="Path 47" d="M391.674,381.687a34.242,34.242,0,0,0,8.037,8.19,7.324,7.324,0,0,0,8.332.19l2.692-1.788a2.777,2.777,0,0,0,.77-3.8l-3.034-4.547a2.768,2.768,0,0,0-3.8-.77l-2.321,1.465a1.246,1.246,0,0,1-1.607-.19,26.554,26.554,0,0,1-2.473-3.148,26.1,26.1,0,0,1-1.95-3.491,1.256,1.256,0,0,1,.438-1.56l2.273-1.512a2.777,2.777,0,0,0,.77-3.8l-3.034-4.547a2.768,2.768,0,0,0-3.8-.77l-2.7,1.75a7.276,7.276,0,0,0-3.034,7.762,33.871,33.871,0,0,0,4.452,10.577Zm-.571-17.064,2.692-1.788a1.246,1.246,0,0,1,1.712.342l3.034,4.547a1.246,1.246,0,0,1-.342,1.722l-2.273,1.512a2.787,2.787,0,0,0-.951,3.481,28.541,28.541,0,0,0,2.064,3.691,27.854,27.854,0,0,0,2.616,3.329,2.778,2.778,0,0,0,3.586.438l2.273-1.512a1.237,1.237,0,0,1,1.712.352l3.034,4.547a1.246,1.246,0,0,1-.342,1.722l-2.692,1.788a5.707,5.707,0,0,1-6.573-.152,29.02,29.02,0,0,1-11.918-17.892,5.764,5.764,0,0,1,2.368-6.126Z" transform="translate(17.929 19.547)" fill="#fff"/>
    <path id="Path_48" data-name="Path 48" d="M416.167,356.614a9.369,9.369,0,0,0-11.024,7.343,9.265,9.265,0,0,0,.447,5.231l-1.579,2.854a.761.761,0,0,0,0,.751.742.742,0,0,0,.656.38h3.947a9.512,9.512,0,0,0,3.862,1.75,9.371,9.371,0,0,0,3.681-18.377Zm-3.358,16.874a7.609,7.609,0,0,1-3.405-1.607.713.713,0,0,0-.333-.152H406l1.141-2.093a.78.78,0,0,0,0-.666,7.838,7.838,0,1,1,5.64,4.556Z" transform="translate(18.395 20.05)" fill="#fff"/>
    <path id="Path_49" data-name="Path 49" d="M410.717,364.128a1.1,1.1,0,1,0,.8,1.286,1.1,1.1,0,0,0-.8-1.286Z" transform="translate(18.143 19.076)" fill="#fff"/>
    <path id="Path_50" data-name="Path 50" d="M414.512,364.889a1.094,1.094,0,1,0,.7.469A1.1,1.1,0,0,0,414.512,364.889Z" transform="translate(18.274 19.114)" fill="#fff"/>
    <path id="Path_51" data-name="Path 51" d="M418.307,365.65a1.1,1.1,0,1,0,.866,1.294,1.1,1.1,0,0,0-.866-1.294Z" transform="translate(18.404 19.152)" fill="#fff"/>
    <circle id="Ellipse_7" data-name="Ellipse 7" cx="37.096" cy="37.096" r="37.096" transform="translate(385.661 356)" fill="none" stroke="#fff" stroke-miterlimit="10" stroke-width="1.902"/>
    <rect id="Rectangle_22" data-name="Rectangle 22" width="72.413" height="39.949" transform="translate(73.44 588.363)" fill="#d2d3d4" stroke="#fff" stroke-miterlimit="10" stroke-width="1.902"/>
    <path id="Path_52" data-name="Path 52" d="M143.38,560.1l-34.09,19.166L75.01,560.1Z" transform="translate(-0.438 28.381)" fill="#fff"/>
  </g>
</svg>
